<svg width="24" height="24" viewBox="0 0 24 24" fill="none" xmlns="http://www.w3.org/2000/svg">
<path d="M10.3869 7.16351C11.1467 7.92339 11.5267 8.30333 11.9989 8.30333C12.4711 8.30333 12.851 7.9234 13.6108 7.16353L15.2233 5.55109C15.5981 5.1763 15.7856 4.98884 15.9806 4.87628C16.9612 4.31014 17.7687 4.87203 18.4478 5.55109C19.1269 6.23016 19.6887 7.03777 19.1226 8.01833C19.0101 8.21329 18.8227 8.40069 18.4479 8.77548L16.8356 10.3878C16.0757 11.1477 15.6955 11.5278 15.6955 12C15.6955 12.4722 16.0755 12.8522 16.8354 13.612L18.4478 15.2245C18.8226 15.5993 19.0101 15.7867 19.1226 15.9816C19.6887 16.9622 19.1269 17.7699 18.4478 18.4488C17.7688 19.128 16.9611 19.6899 15.9806 19.1237C15.7856 19.0112 15.5981 18.8238 15.2233 18.4488L13.6111 16.8367C12.8515 16.0771 12.4711 15.6967 11.9989 15.6967C11.5268 15.6967 11.1464 16.077 10.3867 16.8367L8.77445 18.4488C8.39961 18.8238 8.21219 19.0112 8.01722 19.1237C7.03674 19.6899 6.22898 19.128 5.54999 18.4488C4.87088 17.7699 4.30908 16.9622 4.87517 15.9816C4.98774 15.7867 5.17515 15.5993 5.54999 15.2245L7.16241 13.612C7.92229 12.8522 8.30224 12.4722 8.30224 12C8.30224 11.5278 7.9221 11.1477 7.16221 10.3878L5.54991 8.77548C5.17514 8.40069 4.98773 8.21329 4.87517 8.01833C4.30905 7.03777 4.87092 6.23016 5.54999 5.55109C6.22906 4.87203 7.03666 4.31014 8.01722 4.87628C8.21218 4.98884 8.39964 5.17629 8.77444 5.55108L10.3869 7.16351Z" fill="white"/>
</svg>
