<svg width="17" height="16" viewBox="0 0 17 16" fill="none" xmlns="http://www.w3.org/2000/svg">
<path d="M9.5 8H13.1667" stroke="#DADADA" stroke-linecap="round" stroke-linejoin="round"/>
<path d="M7.50065 8H3.83398" stroke="#DADADA" stroke-linecap="round" stroke-linejoin="round"/>
<path d="M8.5 9C7.94773 9 7.5 8.55227 7.5 8C7.5 7.44773 7.94773 7 8.5 7C9.05227 7 9.5 7.44773 9.5 8C9.5 8.55227 9.05227 9 8.5 9Z" stroke="#DADADA"/>
<path d="M8.50065 14.6667C4.81875 14.6667 1.83398 11.6819 1.83398 8.00004C1.83398 4.31814 4.81875 1.33337 8.50065 1.33337C12.1825 1.33337 15.1673 4.31814 15.1673 8.00004C15.1673 11.6819 12.1825 14.6667 8.50065 14.6667Z" stroke="#DADADA"/>
<path d="M5.17398 9.33329C4.82732 8.98663 3.83398 8.33329 3.83398 7.99996C3.83398 7.66663 4.84065 6.99996 5.17398 6.66663" stroke="#DADADA" stroke-linecap="round" stroke-linejoin="round"/>
<path d="M11.834 6.66663C12.1807 7.01329 13.174 7.66663 13.174 7.99996C13.174 8.33329 12.1673 8.99996 11.834 9.33329" stroke="#DADADA" stroke-linecap="round" stroke-linejoin="round"/>
</svg>
