<svg width="112" height="112" viewBox="0 0 112 112" fill="none" xmlns="http://www.w3.org/2000/svg">
<path d="M86.254 78.246C79.8755 79.7776 73.2167 79.7034 66.8738 78.03C60.531 76.3567 54.7022 73.1364 49.9093 68.6575C45.1165 64.1786 41.5092 58.581 39.4106 52.3659C37.3119 46.1508 36.7874 39.5122 37.884 33.0447C37.7198 33.2085 37.5435 33.3598 37.3567 33.4973C36.05 34.4913 34.4167 34.86 31.15 35.5973L28.1867 36.2693C16.7067 38.8687 10.9667 40.166 9.59937 44.5573C8.23671 48.944 12.1474 53.522 19.9734 62.6733L21.9987 65.0393C24.22 67.6387 25.3354 68.9407 25.8347 70.546C26.334 72.156 26.166 73.892 25.83 77.3593L25.522 80.5187C24.3414 92.7313 23.7487 98.8354 27.3234 101.547C30.898 104.258 36.274 101.789 47.0167 96.838L49.8027 95.5593C52.8547 94.15 54.3807 93.45 56 93.45C57.6194 93.45 59.1454 94.15 62.202 95.5593L64.9787 96.838C75.726 101.785 81.102 104.258 84.672 101.551C88.2514 98.8353 87.6587 92.7313 86.478 80.5187L86.254 78.246Z" fill="white"/>
<path d="M42.7141 25.2373L41.1834 27.9813C39.5034 30.9959 38.6634 32.5033 37.3567 33.4972C37.5434 33.3573 37.7192 33.2064 37.8841 33.0446C36.7872 39.5126 37.3117 46.1517 39.4105 52.3673C41.5094 58.5829 45.1171 64.1809 49.9105 68.6599C54.704 73.1389 60.5335 76.359 66.877 78.032C73.2205 79.705 79.8799 79.7785 86.2587 78.2459L86.1654 77.3592C85.8341 73.8919 85.6661 72.1559 86.1654 70.5459C86.6647 68.9406 87.7754 67.6386 90.0014 65.0392L92.0267 62.6732C99.8527 53.5266 103.763 48.9486 102.396 44.5573C101.033 40.1659 95.2934 38.8639 83.8134 36.2692L80.8454 35.5972C77.5834 34.8599 75.9501 34.4913 74.6387 33.4972C73.3321 32.5033 72.4921 30.9959 70.8121 27.9813L69.2861 25.2373C63.3734 14.6346 60.4194 9.33325 56.0001 9.33325C51.5807 9.33325 48.6267 14.6346 42.7141 25.2373Z" fill="#65D35A"/>
</svg>
