<svg width="214" height="32" viewBox="0 0 214 32" fill="none" xmlns="http://www.w3.org/2000/svg">
<path d="M5.33924 22.6981V17.6545H12.079C14.2214 17.6545 15.8282 17.223 16.8994 16.3601C17.9706 15.4674 18.5062 14.0094 18.5062 11.986C18.5062 10.2006 18.0004 8.84673 16.9887 7.92429C16.0067 6.9721 14.4743 6.49601 12.3914 6.49601H5.33924V1.54165H12.5699C14.4743 1.54165 16.1853 1.76482 17.7028 2.21116C19.2501 2.6575 20.5594 3.327 21.6306 4.21968C22.7316 5.0826 23.5647 6.18357 24.1301 7.52259C24.6955 8.83185 24.9781 10.3792 24.9781 12.1645C24.9781 14.4557 24.4574 16.3898 23.416 17.9669C22.3745 19.5142 20.8272 20.6896 18.774 21.493C16.7506 22.2964 14.2214 22.6981 11.1863 22.6981H5.33924ZM0.831217 31V1.54165H7.25849V31H0.831217ZM29.5991 31V1.54165H36.1603V31H29.5991ZM42.6755 31V1.54165H51.0666L64.4122 22.3857H64.9031L64.5014 1.54165H70.7502V31H63.1624L49.0581 9.17404H48.5671L48.9688 31H42.6755ZM88.9336 31.6249C86.5233 31.6249 84.3512 31.0744 82.417 29.9734C80.5127 28.8427 78.9951 27.1764 77.8644 24.9744C76.7634 22.7427 76.2129 19.9457 76.2129 16.5833C76.2129 14.1135 76.5254 11.9265 77.1502 10.0221C77.8049 8.08795 78.7422 6.45137 79.9622 5.11236C81.2119 3.74359 82.7443 2.70213 84.5595 1.98799C86.3746 1.27385 88.4724 0.916776 90.8528 0.916776C92.6382 0.916776 94.2599 1.12507 95.7179 1.54165C97.176 1.95823 98.4406 2.55335 99.5118 3.32701C100.583 4.10066 101.416 5.03797 102.011 6.13894C102.636 7.21015 102.978 8.43014 103.038 9.79891L96.9677 11.6735C96.9082 10.4238 96.5808 9.39721 95.9857 8.5938C95.4204 7.79039 94.6616 7.19527 93.7094 6.80844C92.787 6.39186 91.7455 6.18357 90.585 6.18357C88.9782 6.18357 87.5946 6.55552 86.4341 7.29942C85.3034 8.01356 84.4404 9.12941 83.8453 10.647C83.2502 12.1348 82.9526 14.0243 82.9526 16.3155C82.9526 18.0711 83.1163 19.5886 83.4436 20.8681C83.8007 22.1179 84.3214 23.1593 85.0058 23.9925C85.6902 24.8256 86.5085 25.4505 87.4607 25.8671C88.4128 26.2539 89.5138 26.4473 90.7636 26.4473C92.0728 26.4473 93.2035 26.2391 94.1557 25.8225C95.1377 25.3761 95.9113 24.7066 96.4767 23.8139C97.0718 22.8915 97.3991 21.731 97.4586 20.3325H91.8794V15.6906H103.797V21.0913V31H99.3333L99.4225 23.4569H98.6191C98.143 25.2422 97.5033 26.7449 96.6999 27.9649C95.8965 29.1551 94.855 30.0627 93.5755 30.6876C92.3257 31.3124 90.7784 31.6249 88.9336 31.6249Z" fill="#65D35A"/>
<path d="M122.976 31.6249C120.685 31.6249 118.632 31.3124 116.816 30.6876C115.031 30.0329 113.499 29.0807 112.219 27.831C110.969 26.5515 110.017 24.9744 109.363 23.0998C108.708 21.2252 108.381 19.053 108.381 16.5833C108.381 14.0838 108.708 11.867 109.363 9.93282C110.047 7.99868 111.014 6.36211 112.264 5.02309C113.543 3.65432 115.046 2.62774 116.772 1.94336C118.498 1.25897 120.417 0.916776 122.53 0.916776C124.166 0.916776 125.684 1.13995 127.082 1.58628C128.481 2.00287 129.686 2.61286 130.698 3.41627C131.709 4.21968 132.498 5.20163 133.063 6.36211C133.658 7.52259 133.971 8.83185 134.001 10.2899L128.064 11.8521C128.064 10.6023 127.782 9.56087 127.216 8.7277C126.681 7.89454 125.966 7.26966 125.074 6.85308C124.211 6.40674 123.288 6.18357 122.306 6.18357C121.444 6.18357 120.581 6.36211 119.718 6.71918C118.885 7.04649 118.111 7.61185 117.397 8.41526C116.712 9.18892 116.147 10.2155 115.701 11.495C115.284 12.7745 115.076 14.3367 115.076 16.1816C115.076 18.5918 115.418 20.5408 116.102 22.0286C116.816 23.5164 117.784 24.6174 119.004 25.3315C120.224 26.0159 121.592 26.3581 123.11 26.3581C124.746 26.3581 126.011 26.0308 126.904 25.3761C127.826 24.6917 128.481 23.8288 128.868 22.7874C129.284 21.7162 129.507 20.5854 129.537 19.3952L135.161 20.3325C135.131 21.9096 134.893 23.3974 134.447 24.7959C134.001 26.1647 133.301 27.3698 132.349 28.4112C131.397 29.4229 130.147 30.2115 128.6 30.7768C127.053 31.3422 125.178 31.6249 122.976 31.6249ZM152.554 31.6249C150.412 31.6249 148.493 31.2976 146.796 30.6429C145.1 29.9585 143.642 28.9766 142.422 27.6971C141.232 26.3878 140.31 24.7959 139.655 22.9213C139.03 21.0169 138.718 18.8447 138.718 16.4047C138.718 12.9233 139.328 10.0518 140.548 7.79039C141.768 5.49919 143.434 3.78822 145.547 2.6575C147.689 1.49702 150.099 0.916776 152.777 0.916776C154.86 0.916776 156.75 1.25897 158.446 1.94336C160.142 2.59799 161.585 3.57993 162.775 4.88919C163.995 6.16869 164.933 7.77551 165.587 9.70965C166.242 11.614 166.569 13.8011 166.569 16.2708C166.569 18.8001 166.242 21.0169 165.587 22.9213C164.933 24.8256 163.981 26.4325 162.731 27.7417C161.511 29.0212 160.038 29.9883 158.312 30.6429C156.586 31.2976 154.667 31.6249 152.554 31.6249ZM152.733 26.492C154.31 26.492 155.634 26.1052 156.705 25.3315C157.776 24.5578 158.595 23.442 159.16 21.984C159.725 20.5259 160.008 18.7406 160.008 16.6279C160.008 14.426 159.711 12.5513 159.115 11.004C158.55 9.45672 157.717 8.28136 156.616 7.47795C155.515 6.64479 154.176 6.22821 152.599 6.22821C151.052 6.22821 149.727 6.62991 148.626 7.43332C147.555 8.20697 146.722 9.3377 146.127 10.8255C145.562 12.3133 145.279 14.1582 145.279 16.3601C145.279 17.9669 145.443 19.4101 145.77 20.6896C146.127 21.9393 146.618 22.9957 147.243 23.8586C147.868 24.7215 148.641 25.3761 149.564 25.8225C150.486 26.2688 151.543 26.492 152.733 26.492ZM172 31V1.54165H178.562V31H172ZM185.077 31V1.54165H193.468L206.813 22.3857H207.304L206.903 1.54165H213.151V31H205.564L191.459 9.17404H190.968L191.37 31H185.077Z" fill="white"/>
</svg>
