<svg width="97" height="15" viewBox="0 0 97 15" fill="none" xmlns="http://www.w3.org/2000/svg">
<path d="M2.9468 10.28V8.02H5.9668C6.9268 8.02 7.6468 7.82667 8.1268 7.44C8.6068 7.04 8.8468 6.38667 8.8468 5.48C8.8468 4.68 8.62013 4.07333 8.1668 3.66C7.7268 3.23333 7.04013 3.02 6.1068 3.02H2.9468V0.799999H6.1868C7.04013 0.799999 7.8068 0.899999 8.4868 1.1C9.18013 1.3 9.7668 1.6 10.2468 2C10.7401 2.38667 11.1135 2.88 11.3668 3.48C11.6201 4.06667 11.7468 4.76 11.7468 5.56C11.7468 6.58667 11.5135 7.45333 11.0468 8.16C10.5801 8.85333 9.8868 9.38 8.9668 9.74C8.06013 10.1 6.9268 10.28 5.5668 10.28H2.9468ZM0.926797 14V0.799999H3.8068V14H0.926797ZM13.8174 14V0.799999H16.7574V14H13.8174ZM19.6768 14V0.799999H23.4368L29.4168 10.14H29.6368L29.4568 0.799999H32.2568V14H28.8568L22.5368 4.22H22.3168L22.4968 14H19.6768ZM40.4046 14.28C39.3246 14.28 38.3513 14.0333 37.4846 13.54C36.6313 13.0333 35.9513 12.2867 35.4446 11.3C34.9513 10.3 34.7046 9.04667 34.7046 7.54C34.7046 6.43333 34.8446 5.45333 35.1246 4.6C35.4179 3.73333 35.8379 3 36.3846 2.4C36.9446 1.78667 37.6313 1.32 38.4446 0.999999C39.2579 0.679999 40.1979 0.52 41.2646 0.52C42.0646 0.52 42.7913 0.613333 43.4446 0.799999C44.0979 0.986666 44.6646 1.25333 45.1446 1.6C45.6246 1.94667 45.9979 2.36667 46.2646 2.86C46.5446 3.34 46.6979 3.88667 46.7246 4.5L44.0046 5.34C43.9779 4.78 43.8313 4.32 43.5646 3.96C43.3113 3.6 42.9713 3.33333 42.5446 3.16C42.1313 2.97333 41.6646 2.88 41.1446 2.88C40.4246 2.88 39.8046 3.04667 39.2846 3.38C38.7779 3.7 38.3913 4.2 38.1246 4.88C37.8579 5.54667 37.7246 6.39333 37.7246 7.42C37.7246 8.20667 37.7979 8.88667 37.9446 9.46C38.1046 10.02 38.3379 10.4867 38.6446 10.86C38.9513 11.2333 39.3179 11.5133 39.7446 11.7C40.1713 11.8733 40.6646 11.96 41.2246 11.96C41.8113 11.96 42.3179 11.8667 42.7446 11.68C43.1846 11.48 43.5313 11.18 43.7846 10.78C44.0513 10.3667 44.1979 9.84667 44.2246 9.22H41.7246V7.14H47.0646V9.56V14H45.0646L45.1046 10.62H44.7446C44.5313 11.42 44.2446 12.0933 43.8846 12.64C43.5246 13.1733 43.0579 13.58 42.4846 13.86C41.9246 14.14 41.2313 14.28 40.4046 14.28Z" fill="#65D35A"/>
<path d="M55.6587 14.28C54.632 14.28 53.712 14.14 52.8987 13.86C52.0987 13.5667 51.412 13.14 50.8387 12.58C50.2787 12.0067 49.852 11.3 49.5587 10.46C49.2653 9.62 49.1187 8.64667 49.1187 7.54C49.1187 6.42 49.2653 5.42667 49.5587 4.56C49.8653 3.69333 50.2987 2.96 50.8587 2.36C51.432 1.74667 52.1053 1.28667 52.8787 0.98C53.652 0.673333 54.512 0.52 55.4587 0.52C56.192 0.52 56.872 0.619999 57.4987 0.819999C58.1253 1.00667 58.6653 1.28 59.1187 1.64C59.572 2 59.9253 2.44 60.1787 2.96C60.4453 3.48 60.5853 4.06667 60.5987 4.72L57.9387 5.42C57.9387 4.86 57.812 4.39333 57.5587 4.02C57.3187 3.64667 56.9987 3.36667 56.5987 3.18C56.212 2.98 55.7987 2.88 55.3587 2.88C54.972 2.88 54.5853 2.96 54.1987 3.12C53.8253 3.26667 53.4787 3.52 53.1587 3.88C52.852 4.22667 52.5987 4.68667 52.3987 5.26C52.212 5.83333 52.1187 6.53333 52.1187 7.36C52.1187 8.44 52.272 9.31333 52.5787 9.98C52.8987 10.6467 53.332 11.14 53.8787 11.46C54.4253 11.7667 55.0387 11.92 55.7187 11.92C56.452 11.92 57.0187 11.7733 57.4187 11.48C57.832 11.1733 58.1253 10.7867 58.2987 10.32C58.4853 9.84 58.5853 9.33333 58.5987 8.8L61.1187 9.22C61.1053 9.92667 60.9987 10.5933 60.7987 11.22C60.5987 11.8333 60.2853 12.3733 59.8587 12.84C59.432 13.2933 58.872 13.6467 58.1787 13.9C57.4853 14.1533 56.6453 14.28 55.6587 14.28ZM68.9124 14.28C67.9524 14.28 67.0924 14.1333 66.3324 13.84C65.5724 13.5333 64.9191 13.0933 64.3724 12.52C63.8391 11.9333 63.4258 11.22 63.1324 10.38C62.8524 9.52667 62.7124 8.55333 62.7124 7.46C62.7124 5.9 62.9858 4.61333 63.5324 3.6C64.0791 2.57333 64.8258 1.80667 65.7724 1.3C66.7324 0.779999 67.8124 0.52 69.0124 0.52C69.9458 0.52 70.7924 0.673333 71.5524 0.98C72.3124 1.27333 72.9591 1.71333 73.4924 2.3C74.0391 2.87333 74.4591 3.59333 74.7524 4.46C75.0458 5.31333 75.1924 6.29333 75.1924 7.4C75.1924 8.53333 75.0458 9.52667 74.7524 10.38C74.4591 11.2333 74.0324 11.9533 73.4724 12.54C72.9258 13.1133 72.2658 13.5467 71.4924 13.84C70.7191 14.1333 69.8591 14.28 68.9124 14.28ZM68.9924 11.98C69.6991 11.98 70.2924 11.8067 70.7724 11.46C71.2524 11.1133 71.6191 10.6133 71.8724 9.96C72.1258 9.30667 72.2524 8.50667 72.2524 7.56C72.2524 6.57333 72.1191 5.73333 71.8524 5.04C71.5991 4.34667 71.2258 3.82 70.7324 3.46C70.2391 3.08667 69.6391 2.9 68.9324 2.9C68.2391 2.9 67.6458 3.08 67.1524 3.44C66.6724 3.78667 66.2991 4.29333 66.0324 4.96C65.7791 5.62667 65.6524 6.45333 65.6524 7.44C65.6524 8.16 65.7258 8.80667 65.8724 9.38C66.0324 9.94 66.2524 10.4133 66.5324 10.8C66.8124 11.1867 67.1591 11.48 67.5724 11.68C67.9858 11.88 68.4591 11.98 68.9924 11.98ZM77.626 14V0.799999H80.566V14H77.626ZM83.4854 14V0.799999H87.2454L93.2254 10.14H93.4454L93.2654 0.799999H96.0654V14H92.6654L86.3454 4.22H86.1254L86.3054 14H83.4854Z" fill="white"/>
</svg>
