<svg width="25" height="24" viewBox="0 0 25 24" fill="none" xmlns="http://www.w3.org/2000/svg">
<path d="M21.5 12C21.5 11.1716 20.8284 10.5 20 10.5C19.1716 10.5 18.5 11.1716 18.5 12C18.5 12.8284 19.1716 13.5 20 13.5C20.8284 13.5 21.5 12.8284 21.5 12Z" stroke="#969696" stroke-width="1.5"/>
<path d="M14 12C14 11.1716 13.3284 10.5 12.5 10.5C11.6716 10.5 11 11.1716 11 12C11 12.8284 11.6716 13.5 12.5 13.5C13.3284 13.5 14 12.8284 14 12Z" stroke="#969696" stroke-width="1.5"/>
<path d="M6.5 12C6.5 11.1716 5.82843 10.5 5 10.5C4.17157 10.5 3.5 11.1716 3.5 12C3.5 12.8284 4.17157 13.5 5 13.5C5.82843 13.5 6.5 12.8284 6.5 12Z" stroke="#969696" stroke-width="1.5"/>
</svg>
