<svg width="48" height="48" viewBox="0 0 48 48" fill="none" xmlns="http://www.w3.org/2000/svg">
<path d="M24 44C35.0457 44 44 35.0457 44 24C44 12.9543 35.0457 4 24 4C12.9543 4 4 12.9543 4 24C4 35.0457 12.9543 44 24 44Z" stroke="white" stroke-width="1.5"/>
<path d="M19 22.3996V25.6004C19 28.639 19 30.1582 19.9115 30.7724C20.823 31.3864 22.0696 30.707 24.563 29.3482L27.4994 27.7476C30.4998 26.1124 32 25.2948 32 24C32 22.7052 30.4998 21.8876 27.4994 20.2524L24.563 18.6519C22.0696 17.293 20.823 16.6136 19.9115 17.2276C19 17.8417 19 19.361 19 22.3996Z" fill="white"/>
</svg>
