<svg width="17" height="16" viewBox="0 0 17 16" fill="none" xmlns="http://www.w3.org/2000/svg">
<path d="M2.09961 3.59995C2.09961 3.49386 2.14175 3.39212 2.21677 3.31711C2.29178 3.24209 2.39352 3.19995 2.49961 3.19995H14.4996C14.6057 3.19995 14.7074 3.24209 14.7825 3.31711C14.8575 3.39212 14.8996 3.49386 14.8996 3.59995C14.8996 3.70604 14.8575 3.80778 14.7825 3.88279C14.7074 3.95781 14.6057 3.99995 14.4996 3.99995H2.49961C2.39352 3.99995 2.29178 3.95781 2.21677 3.88279C2.14175 3.80778 2.09961 3.70604 2.09961 3.59995ZM2.09961 11.6C2.09961 11.2817 2.22604 10.9765 2.45108 10.7514C2.67612 10.5264 2.98135 10.4 3.29961 10.4H13.6996C14.0179 10.4 14.3231 10.5264 14.5481 10.7514C14.7732 10.9765 14.8996 11.2817 14.8996 11.6C14.8996 11.9182 14.7732 12.2234 14.5481 12.4485C14.3231 12.6735 14.0179 12.8 13.6996 12.8H3.29961C2.98135 12.8 2.67612 12.6735 2.45108 12.4485C2.22604 12.2234 2.09961 11.9182 2.09961 11.6ZM2.89961 6.39995C2.68744 6.39995 2.48395 6.48424 2.33392 6.63427C2.18389 6.7843 2.09961 6.98778 2.09961 7.19995C2.09961 7.41212 2.18389 7.61561 2.33392 7.76564C2.48395 7.91567 2.68744 7.99995 2.89961 7.99995H14.0996C14.3118 7.99995 14.5153 7.91567 14.6653 7.76564C14.8153 7.61561 14.8996 7.41212 14.8996 7.19995C14.8996 6.98778 14.8153 6.7843 14.6653 6.63427C14.5153 6.48424 14.3118 6.39995 14.0996 6.39995H2.89961Z" fill="#DADADA"/>
</svg>
