<svg width="24" height="24" viewBox="0 0 24 24" fill="none" xmlns="http://www.w3.org/2000/svg">
<path d="M21.0673 5.92346C21.4599 6.93917 20.9093 7.63457 19.8439 8.31958C18.9841 8.87227 17.8887 9.47103 16.7281 10.4947C15.5903 11.4982 14.4799 12.7069 13.4931 13.8966C12.5103 15.0814 11.675 16.217 11.0848 17.0579C10.7034 17.6013 10.1711 18.4119 10.1711 18.4119C9.79578 19.0057 9.12096 19.3651 8.39739 19.3561C7.67365 19.3471 7.0089 18.9712 6.6498 18.3679C5.73184 16.8257 5.0235 16.2167 4.69794 15.998C3.82683 15.4126 2.80469 15.3261 2.80469 13.9618C2.80469 12.8785 3.71953 12.0003 4.84805 12.0003C5.6448 12.0297 6.38536 12.343 7.04152 12.784C7.46095 13.0658 7.90528 13.4386 8.36743 13.9293C8.90983 13.1895 9.56346 12.3359 10.2962 11.4526C11.3603 10.1698 12.6163 8.79364 13.9632 7.60566C15.2873 6.43784 16.8181 5.34469 18.4407 4.76672C19.4988 4.38986 20.6748 4.90775 21.0673 5.92346Z" fill="white"/>
</svg>
