<svg width="25" height="24" viewBox="0 0 25 24" fill="none" xmlns="http://www.w3.org/2000/svg">
<path d="M18.2 21.3351C17.028 21.4998 15.4995 21.4998 13.45 21.4998H11.55C7.51949 21.4998 5.50424 21.4998 4.25212 20.2476C3 18.9955 3 16.9803 3 12.9498V11.0498C3 7.01925 3 5.00399 4.25212 3.75187C5.50424 2.49976 7.51949 2.49976 11.55 2.49976H13.45C17.4805 2.49976 19.4957 2.49976 20.7478 3.75187C22 5.00399 22 7.01925 22 11.0498V12.9498C22 14.158 22 15.1851 21.9662 16.0648C21.9392 16.7699 21.9257 17.1224 21.6587 17.2541C21.3917 17.3859 21.0931 17.1746 20.4957 16.752L19.15 15.7998" stroke="#969696" stroke-width="1.5" stroke-linecap="round" stroke-linejoin="round"/>
<path d="M15.4453 12.3948C15.2686 13.0215 14.4333 13.4644 12.7629 14.3502C11.148 15.2064 10.3406 15.6346 9.68992 15.4625C9.4209 15.3913 9.1758 15.2562 8.97812 15.07C8.5 14.6198 8.5 13.7465 8.5 12C8.5 10.2535 8.5 9.38018 8.97812 8.92995C9.1758 8.74381 9.4209 8.60868 9.68992 8.53753C10.3406 8.36544 11.148 8.79357 12.7629 9.64983C14.4333 10.5356 15.2686 10.9785 15.4453 11.6052C15.5182 11.8639 15.5182 12.1361 15.4453 12.3948Z" stroke="#969696" stroke-width="1.5" stroke-linejoin="round"/>
</svg>
