<svg width="17" height="16" viewBox="0 0 17 16" fill="none" xmlns="http://www.w3.org/2000/svg">
<path d="M4.95533 3.33343C4.04533 3.37476 3.48333 3.50276 3.086 3.90076C2.5 4.48743 2.5 5.4321 2.5 7.32076V10.6601C2.5 12.5488 2.5 13.4934 3.086 14.0801C3.67133 14.6668 4.61467 14.6668 6.5 14.6668H10.5C12.3853 14.6668 13.3287 14.6668 13.914 14.0801C14.4993 13.4934 14.5 12.5488 14.5 10.6601V7.3201C14.5 5.43143 14.5 4.48676 13.914 3.9001C13.5167 3.5021 12.954 3.37343 12.0447 3.33276" stroke="#DADADA" stroke-linecap="round" stroke-linejoin="round"/>
<path d="M7.16713 12H9.83379M8.16713 6.66671L8.83379 4.66671M5.18379 4.36004C4.86379 3.10671 4.70379 2.48004 4.96379 2.02004C5.03346 1.89751 5.12212 1.7868 5.22646 1.69204C5.61913 1.33337 6.27979 1.33337 7.60046 1.33337H9.40046C10.7211 1.33337 11.3818 1.33337 11.7745 1.69204C11.8791 1.78737 11.9678 1.89871 12.0371 2.02071C12.2971 2.48071 12.1371 3.10737 11.8171 4.36071C11.5611 5.35937 11.4338 5.85871 11.0925 6.18737C10.9991 6.2776 10.8967 6.35604 10.7851 6.42271C10.3758 6.66671 9.84913 6.66671 8.79646 6.66671H8.20446C7.15113 6.66671 6.62446 6.66671 6.21579 6.42271C6.10515 6.35615 6.00229 6.27744 5.90913 6.18804C5.56713 5.85871 5.43913 5.35937 5.18379 4.36004Z" stroke="#DADADA" stroke-linecap="round" stroke-linejoin="round"/>
</svg>
