<svg width="20" height="21" viewBox="0 0 20 21" fill="none" xmlns="http://www.w3.org/2000/svg">
<path d="M18.3327 11.8158V11.9521M18.3327 11.9521C18.3327 11.266 17.8329 10.6805 17.151 10.5677L16.2114 10.4122V11.114M18.3327 11.9521V13.6872C18.3327 15.2123 18.3327 15.9749 18.0986 16.582C17.7407 17.5103 17.0039 18.2439 16.0714 18.6003C15.4616 18.8333 14.6957 18.8333 13.1638 18.8333C12.3603 18.8333 11.9587 18.8333 11.5848 18.7515C11.0144 18.6267 10.4842 18.3627 10.0417 17.9833C9.75168 17.7347 9.5106 17.4148 9.0286 16.7748L6.90457 13.9552C6.5782 13.522 6.58758 12.9238 6.92738 12.5009C7.37147 11.9482 8.19949 11.9026 8.70218 12.4031L9.7771 13.5437V6.67647C9.7771 6.02672 10.2994 5.5 10.9438 5.5C11.5881 5.5 12.1104 6.02672 12.1104 6.67647V9.00875M16.2114 11.114C16.2114 10.3389 15.5784 9.7105 14.7973 9.7105H14.0903V10.4122M16.2114 11.114V11.8158M12.1104 9.00875H12.6761C13.4571 9.00875 14.0903 9.63717 14.0903 10.4122M12.1104 9.00875V11.114M14.0903 10.4122V11.114" stroke="white" stroke-width="1.25" stroke-linecap="round" stroke-linejoin="round"/>
<path d="M18.3327 7.17507C18.3028 5.10527 18.1494 3.93182 17.3632 3.14458C16.3864 2.16663 14.8144 2.16663 11.6703 2.16663H8.3356C5.19152 2.16663 3.61948 2.16663 2.64275 3.14458C1.66602 4.12254 1.66602 5.69654 1.66602 8.84454V10.514C1.66602 12.0698 1.66602 12.8476 1.91986 13.4613C2.25832 14.2794 2.90752 14.9294 3.72463 15.2683C4.06433 15.4092 4.45445 15.472 4.99935 15.5" stroke="white" stroke-width="1.25" stroke-linecap="round"/>
</svg>
