<svg width="20" height="21" viewBox="0 0 20 21" fill="none" xmlns="http://www.w3.org/2000/svg">
<path d="M5.83333 10.5V18M14.1667 10.5V18" stroke="#929599" stroke-width="1.25" stroke-linecap="round" stroke-linejoin="round"/>
<path d="M2.5 10.5H17.5" stroke="#929599" stroke-width="1.25" stroke-linecap="round" stroke-linejoin="round"/>
<path d="M2.08333 11.9583C2.08333 8.91383 2.08333 7.3916 3.01083 6.4458C3.93833 5.5 5.43111 5.5 8.41667 5.5H11.5833C14.5689 5.5 16.0617 5.5 16.9892 6.4458C17.9167 7.3916 17.9167 8.91383 17.9167 11.9583C17.9167 15.0028 17.9167 16.5251 16.9892 17.4708C16.0617 18.4167 14.5689 18.4167 11.5833 18.4167H8.41667C5.43111 18.4167 3.93833 18.4167 3.01083 17.4708C2.08333 16.5251 2.08333 15.0028 2.08333 11.9583Z" stroke="#929599" stroke-width="1.25" stroke-linecap="round"/>
<path d="M13.75 5.49992L13.6672 5.24237C13.2547 3.95899 13.0484 3.31731 12.5574 2.95028C12.0663 2.58325 11.4142 2.58325 10.1097 2.58325H9.89033C8.58583 2.58325 7.93363 2.58325 7.44259 2.95028C6.95155 3.31731 6.7453 3.95899 6.33278 5.24237L6.25 5.49992" stroke="#929599" stroke-width="1.25"/>
</svg>
