<svg width="20" height="21" viewBox="0 0 20 21" fill="none" xmlns="http://www.w3.org/2000/svg">
<path d="M12.9167 11.3333C15.9082 11.3333 18.3333 10.5871 18.3333 9.66667C18.3333 8.74619 15.9082 8 12.9167 8C9.92512 8 7.5 8.74619 7.5 9.66667C7.5 10.5871 9.92512 11.3333 12.9167 11.3333Z" stroke="white" stroke-width="1.25"/>
<path d="M18.3333 13.4166C18.3333 14.3371 15.9082 15.0833 12.9167 15.0833C9.92508 15.0833 7.5 14.3371 7.5 13.4166" stroke="white" stroke-width="1.25"/>
<path d="M18.3333 9.66663V17C18.3333 18.0125 15.9082 18.8333 12.9167 18.8333C9.92508 18.8333 7.5 18.0125 7.5 17V9.66663" stroke="white" stroke-width="1.25"/>
<path d="M7.08268 5.49996C10.0742 5.49996 12.4993 4.75377 12.4993 3.83329C12.4993 2.91282 10.0742 2.16663 7.08268 2.16663C4.09114 2.16663 1.66602 2.91282 1.66602 3.83329C1.66602 4.75377 4.09114 5.49996 7.08268 5.49996Z" stroke="white" stroke-width="1.25"/>
<path d="M4.99935 9.66667C3.42284 9.47483 1.97427 8.97875 1.66602 8M4.99935 13.8333C3.42284 13.6415 1.97427 13.1454 1.66602 12.1667" stroke="white" stroke-width="1.25" stroke-linecap="round"/>
<path d="M4.99935 18C3.42284 17.8082 1.97427 17.3121 1.66602 16.3334V3.83337" stroke="white" stroke-width="1.25" stroke-linecap="round"/>
<path d="M12.5 5.50004V3.83337" stroke="white" stroke-width="1.25" stroke-linecap="round"/>
</svg>
