<svg width="20" height="21" viewBox="0 0 20 21" fill="none" xmlns="http://www.w3.org/2000/svg">
<path d="M13.334 4.66675C13.334 3.89018 13.334 3.5019 13.4608 3.19561C13.63 2.78723 13.9545 2.46277 14.3628 2.29361C14.6692 2.16675 15.0574 2.16675 15.834 2.16675C16.6106 2.16675 16.9988 2.16675 17.3052 2.29361C17.7135 2.46277 18.038 2.78723 18.2072 3.19561C18.334 3.5019 18.334 3.89018 18.334 4.66675V8.00008C18.334 8.77665 18.334 9.16491 18.2072 9.47125C18.038 9.87958 17.7135 10.2041 17.3052 10.3732C16.9988 10.5001 16.6106 10.5001 15.834 10.5001C15.0574 10.5001 14.6692 10.5001 14.3628 10.3732C13.9545 10.2041 13.63 9.87958 13.4608 9.47125C13.334 9.16491 13.334 8.77665 13.334 8.00008V4.66675Z" stroke="white" stroke-width="1.25"/>
<path d="M13.334 16.3333C13.334 15.5567 13.334 15.1684 13.4608 14.8621C13.63 14.4538 13.9545 14.1293 14.3628 13.9601C14.6692 13.8333 15.0574 13.8333 15.834 13.8333C16.6106 13.8333 16.9988 13.8333 17.3052 13.9601C17.7135 14.1293 18.038 14.4538 18.2072 14.8621C18.334 15.1684 18.334 15.5567 18.334 16.3333C18.334 17.1098 18.334 17.4981 18.2072 17.8044C18.038 18.2128 17.7135 18.5373 17.3052 18.7064C16.9988 18.8333 16.6106 18.8333 15.834 18.8333C15.0574 18.8333 14.6692 18.8333 14.3628 18.7064C13.9545 18.5373 13.63 18.2128 13.4608 17.8044C13.334 17.4981 13.334 17.1098 13.334 16.3333Z" stroke="white" stroke-width="1.25"/>
<path d="M1.66602 13.8333C1.66602 12.262 1.66602 11.4763 2.15417 10.9882C2.64232 10.5 3.428 10.5 4.99935 10.5H6.66602C8.23737 10.5 9.02302 10.5 9.51118 10.9882C9.99935 11.4763 9.99935 12.262 9.99935 13.8333V15.5C9.99935 17.0713 9.99935 17.857 9.51118 18.3452C9.02302 18.8333 8.23737 18.8333 6.66602 18.8333H4.99935C3.428 18.8333 2.64232 18.8333 2.15417 18.3452C1.66602 17.857 1.66602 17.0713 1.66602 15.5V13.8333Z" stroke="white" stroke-width="1.25"/>
<path d="M1.66602 4.66675C1.66602 3.89018 1.66602 3.5019 1.79288 3.19561C1.96204 2.78723 2.2865 2.46277 2.69487 2.29361C3.00117 2.16675 3.38945 2.16675 4.16602 2.16675H7.49935C8.27592 2.16675 8.66418 2.16675 8.97052 2.29361C9.37885 2.46277 9.70335 2.78723 9.87252 3.19561C9.99935 3.5019 9.99935 3.89018 9.99935 4.66675C9.99935 5.44331 9.99935 5.8316 9.87252 6.13789C9.70335 6.54626 9.37885 6.87072 8.97052 7.03988C8.66418 7.16675 8.27592 7.16675 7.49935 7.16675H4.16602C3.38945 7.16675 3.00117 7.16675 2.69487 7.03988C2.2865 6.87072 1.96204 6.54626 1.79288 6.13789C1.66602 5.8316 1.66602 5.44331 1.66602 4.66675Z" stroke="white" stroke-width="1.25"/>
</svg>
