<svg width="24" height="25" viewBox="0 0 24 25" fill="none" xmlns="http://www.w3.org/2000/svg">
<path d="M21.544 11.545C21.848 11.9713 22 12.1845 22 12.5C22 12.8155 21.848 13.0287 21.544 13.455C20.1779 15.3706 16.6892 19.5 12 19.5C7.31078 19.5 3.8221 15.3706 2.45604 13.455C2.15201 13.0287 2 12.8155 2 12.5C2 12.1845 2.15201 11.9713 2.45604 11.545C3.8221 9.62944 7.31078 5.5 12 5.5C16.6892 5.5 20.1779 9.62944 21.544 11.545Z" stroke="#FF9E00" stroke-width="1.5"/>
<path d="M15 12.5C15 10.8431 13.6569 9.5 12 9.5C10.3431 9.5 9 10.8431 9 12.5C9 14.1569 10.3431 15.5 12 15.5C13.6569 15.5 15 14.1569 15 12.5Z" stroke="#FF9E00" stroke-width="1.5"/>
</svg>
