<svg width="20" height="21" viewBox="0 0 20 21" fill="none" xmlns="http://www.w3.org/2000/svg">
<path d="M6.66602 14.6667H13.3327" stroke="#929599" stroke-width="1.25" stroke-linecap="round" stroke-linejoin="round"/>
<path d="M6.66602 11.3333H9.99935" stroke="#929599" stroke-width="1.25" stroke-linecap="round" stroke-linejoin="round"/>
<path d="M10.834 2.58332V2.99999C10.834 5.35701 10.834 6.53552 11.5662 7.26776C12.2985 7.99999 13.477 7.99999 15.834 7.99999H16.2507M16.6673 9.38074V12.1667C16.6673 15.3093 16.6673 16.8807 15.691 17.857C14.7147 18.8333 13.1433 18.8333 10.0007 18.8333C6.85795 18.8333 5.28661 18.8333 4.31029 17.857C3.33398 16.8807 3.33398 15.3093 3.33398 12.1667V8.37986C3.33398 5.67567 3.33398 4.32358 4.07238 3.40776C4.22155 3.22275 4.39008 3.05422 4.57509 2.90505C5.49091 2.16666 6.843 2.16666 9.54715 2.16666C10.1352 2.16666 10.4291 2.16666 10.6983 2.26166C10.7543 2.28142 10.8092 2.30416 10.8627 2.32978C11.1203 2.45295 11.3282 2.66082 11.7439 3.07656L15.691 7.02368C16.1727 7.5054 16.4136 7.74626 16.5405 8.05254C16.6673 8.35882 16.6673 8.69945 16.6673 9.38074Z" stroke="#929599" stroke-width="1.25" stroke-linecap="round" stroke-linejoin="round"/>
</svg>
