<svg width="20" height="21" viewBox="0 0 20 21" fill="none" xmlns="http://www.w3.org/2000/svg">
<path d="M12.5 15.1875C12.4387 16.7307 11.1526 18.0412 9.42967 17.999C9.02883 17.9892 8.53342 17.8495 7.5426 17.57C5.15801 16.8973 3.08796 15.7669 2.5913 13.2346C2.5 12.7692 2.5 12.2453 2.5 11.1977V9.80225C2.5 8.75467 2.5 8.23087 2.5913 7.76538C3.08796 5.23304 5.15801 4.10263 7.5426 3.43002C8.53342 3.15053 9.02883 3.01079 9.42967 3.00099C11.1526 2.95884 12.4387 4.26922 12.5 5.81251" stroke="#929599" stroke-width="1.25" stroke-linecap="round"/>
<path d="M17.5007 10.5H8.33398M17.5007 10.5C17.5007 9.91649 15.8387 8.82626 15.4173 8.41666M17.5007 10.5C17.5007 11.0835 15.8387 12.1737 15.4173 12.5833" stroke="#929599" stroke-width="1.25" stroke-linecap="round" stroke-linejoin="round"/>
</svg>
