<svg width="20" height="21" viewBox="0 0 20 21" fill="none" xmlns="http://www.w3.org/2000/svg">
<path d="M9.99935 18.8333L8.33268 13.8333H1.66602L3.33268 18.8333H9.99935ZM9.99935 18.8333H13.3327" stroke="#929599" stroke-width="1.25" stroke-linecap="round" stroke-linejoin="round"/>
<path d="M10.0007 11.3333V10.9167C10.0007 9.34533 10.0007 8.55964 9.51248 8.07149C9.02432 7.58333 8.23867 7.58333 6.66732 7.58333C5.09597 7.58333 4.31029 7.58333 3.82214 8.07149C3.33398 8.55964 3.33398 9.34533 3.33398 10.9167V11.3333" stroke="#929599" stroke-width="1.25" stroke-linecap="round" stroke-linejoin="round"/>
<path d="M15.8333 11.3333C15.8333 12.2538 15.0872 13 14.1667 13C13.2462 13 12.5 12.2538 12.5 11.3333C12.5 10.4128 13.2462 9.66667 14.1667 9.66667C15.0872 9.66667 15.8333 10.4128 15.8333 11.3333Z" stroke="#929599" stroke-width="1.25"/>
<path d="M8.33333 3.83334C8.33333 4.75381 7.58714 5.50001 6.66667 5.50001C5.74619 5.50001 5 4.75381 5 3.83334C5 2.91286 5.74619 2.16667 6.66667 2.16667C7.58714 2.16667 8.33333 2.91286 8.33333 3.83334Z" stroke="#929599" stroke-width="1.25"/>
<path d="M11.666 15.0833H16.666C17.5865 15.0833 18.3327 15.8295 18.3327 16.75V17.1667C18.3327 18.0872 17.5865 18.8333 16.666 18.8333H15.8327" stroke="#929599" stroke-width="1.25" stroke-linecap="round"/>
</svg>
