<svg width="20" height="20" viewBox="0 0 20 20" fill="none" xmlns="http://www.w3.org/2000/svg">
<path d="M12.5 5.4165H7.5C5.14297 5.4165 3.96447 5.4165 3.23223 6.14874C2.5 6.88097 2.5 8.05948 2.5 10.4165V12.4998C2.5 14.8568 2.5 16.0353 3.23223 16.7676C3.96447 17.4998 5.14297 17.4998 7.5 17.4998H12.5C14.857 17.4998 16.0355 17.4998 16.7677 16.7676C17.5 16.0353 17.5 14.8568 17.5 12.4998V10.4165C17.5 8.05948 17.5 6.88097 16.7677 6.14874C16.0355 5.4165 14.857 5.4165 12.5 5.4165Z" stroke="white" stroke-width="1.25" stroke-linecap="round" stroke-linejoin="round"/>
<path d="M7.5 5.41667V5C7.5 3.82149 7.5 3.23223 7.86612 2.86612C8.23223 2.5 8.8215 2.5 10 2.5C11.1785 2.5 11.7678 2.5 12.1339 2.86612C12.5 3.23223 12.5 3.82149 12.5 5V5.41667" stroke="white" stroke-width="1.25" stroke-linecap="round" stroke-linejoin="round"/>
<path d="M17.5013 8.74984C15.6604 8.74984 14.168 7.25745 14.168 5.4165" stroke="white" stroke-width="1.25" stroke-linecap="round"/>
<path d="M7.70703 10L7.08203 10.625L7.70703 11.25L8.33203 10.625L7.70703 10Z" stroke="white" stroke-width="1.25" stroke-linecap="round" stroke-linejoin="round"/>
<path d="M2.5 14.1665C4.34095 14.1665 5.83333 15.6589 5.83333 17.4998" stroke="white" stroke-width="1.25" stroke-linecap="round"/>
<path d="M2.5 8.74984C4.34095 8.74984 5.83333 7.25745 5.83333 5.4165" stroke="white" stroke-width="1.25" stroke-linecap="round"/>
<path d="M17.5013 14.1665C15.6604 14.1665 14.168 15.6589 14.168 17.4998" stroke="white" stroke-width="1.25" stroke-linecap="round"/>
<path d="M11.668 14L10.418 13.75L11.418 12.75L11.668 14Z" stroke="white" stroke-width="1.25" stroke-linecap="round" stroke-linejoin="round"/>
<path d="M12.082 9.1665V9.17484" stroke="white" stroke-width="2.08333" stroke-linecap="round" stroke-linejoin="round"/>
</svg>
