<svg width="20" height="21" viewBox="0 0 20 21" fill="none" xmlns="http://www.w3.org/2000/svg">
<path d="M15.5128 17.1667H15.9213C16.8794 17.1667 17.6416 16.7301 18.3259 16.1197C20.0643 14.5688 15.9778 13 14.5827 13M12.916 4.72398C13.1053 4.68645 13.3018 4.66667 13.5033 4.66667C15.0199 4.66667 16.2493 5.78596 16.2493 7.16667C16.2493 8.54738 15.0199 9.66667 13.5033 9.66667C13.3018 9.66667 13.1053 9.64692 12.916 9.60934" stroke="white" stroke-width="1.25" stroke-linecap="round"/>
<path d="M3.73443 13.926C2.75195 14.4525 0.175949 15.5276 1.7449 16.8728C2.51133 17.53 3.36493 18 4.4381 18H10.5619C11.6351 18 12.4887 17.53 13.2551 16.8728C14.8241 15.5276 12.2481 14.4525 11.2656 13.926C8.96167 12.6913 6.03833 12.6913 3.73443 13.926Z" stroke="white" stroke-width="1.25"/>
<path d="M10.8327 6.75001C10.8327 8.59096 9.34027 10.0833 7.49935 10.0833C5.6584 10.0833 4.16602 8.59096 4.16602 6.75001C4.16602 4.90905 5.6584 3.41667 7.49935 3.41667C9.34027 3.41667 10.8327 4.90905 10.8327 6.75001Z" stroke="white" stroke-width="1.25"/>
</svg>
